<svg width="12" height="14" viewBox="0 0 12 14" fill="none" xmlns="http://www.w3.org/2000/svg">
<path d="M9.64525 7.8225C9.18675 8.75175 8.5655 9.6775 7.93025 10.5087C7.32764 11.2924 6.68329 12.0431 6 12.7575C5.3167 12.0431 4.67235 11.2924 4.06975 10.5087C3.4345 9.6775 2.81325 8.75175 2.35475 7.8225C1.891 6.88362 1.625 6.00425 1.625 5.25C1.625 4.08968 2.08594 2.97688 2.90641 2.15641C3.72688 1.33594 4.83968 0.875 6 0.875C7.16032 0.875 8.27312 1.33594 9.09359 2.15641C9.91406 2.97688 10.375 4.08968 10.375 5.25C10.375 6.00425 10.1081 6.88362 9.64525 7.8225ZM6 14C6 14 11.25 9.02475 11.25 5.25C11.25 3.85761 10.6969 2.52226 9.71231 1.53769C8.72774 0.553123 7.39239 0 6 0C4.60761 0 3.27226 0.553123 2.28769 1.53769C1.30312 2.52226 0.75 3.85761 0.75 5.25C0.75 9.02475 6 14 6 14Z" fill="#007AFF"/>
</svg>
