<svg width="6" height="6" viewBox="0 0 6 6" fill="none" xmlns="http://www.w3.org/2000/svg">
<path d="M3 5C2.53587 5 2.09075 4.81563 1.76256 4.48744C1.43437 4.15925 1.25 3.71413 1.25 3.25C1.25 2.78587 1.43437 2.34075 1.76256 2.01256C2.09075 1.68437 2.53587 1.5 3 1.5C3.46413 1.5 3.90925 1.68437 4.23744 2.01256C4.56563 2.34075 4.75 2.78587 4.75 3.25C4.75 3.71413 4.56563 4.15925 4.23744 4.48744C3.90925 4.81563 3.46413 5 3 5ZM3 5.875C3.69619 5.875 4.36387 5.59844 4.85616 5.10616C5.34844 4.61387 5.625 3.94619 5.625 3.25C5.625 2.55381 5.34844 1.88613 4.85616 1.39384C4.36387 0.901562 3.69619 0.625 3 0.625C2.30381 0.625 1.63613 0.901562 1.14384 1.39384C0.651562 1.88613 0.375 2.55381 0.375 3.25C0.375 3.94619 0.651562 4.61387 1.14384 5.10616C1.63613 5.59844 2.30381 5.875 3 5.875Z" fill="#007AFF"/>
</svg>
