<svg width="18" height="6" viewBox="0 0 18 6" fill="none" xmlns="http://www.w3.org/2000/svg">
<path d="M0.5625 0.137512C0.711684 0.137512 0.854758 0.196776 0.960248 0.302265C1.06574 0.407755 1.125 0.550828 1.125 0.700012V3.51251C1.125 3.81088 1.24353 4.09703 1.4545 4.30801C1.66548 4.51899 1.95163 4.63751 2.25 4.63751H15.75C16.0484 4.63751 16.3345 4.51899 16.5455 4.30801C16.7565 4.09703 16.875 3.81088 16.875 3.51251V0.700012C16.875 0.550828 16.9343 0.407755 17.0398 0.302265C17.1452 0.196776 17.2883 0.137512 17.4375 0.137512C17.5867 0.137512 17.7298 0.196776 17.8352 0.302265C17.9407 0.407755 18 0.550828 18 0.700012V3.51251C18 4.10925 17.7629 4.68155 17.341 5.1035C16.919 5.52546 16.3467 5.76251 15.75 5.76251H2.25C1.65326 5.76251 1.08097 5.52546 0.65901 5.1035C0.237053 4.68155 0 4.10925 0 3.51251V0.700012C0 0.550828 0.0592632 0.407755 0.164752 0.302265C0.270242 0.196776 0.413316 0.137512 0.5625 0.137512Z" fill="#007AFF"/>
</svg>
