<svg width="8" height="13" viewBox="0 0 8 13" fill="none" xmlns="http://www.w3.org/2000/svg">
<path d="M3.60174 0.289279C3.65399 0.236895 3.71607 0.195335 3.78441 0.166977C3.85274 0.13862 3.92601 0.124023 3.99999 0.124023C4.07398 0.124023 4.14724 0.13862 4.21558 0.166977C4.28392 0.195335 4.34599 0.236895 4.39824 0.289279L7.77324 3.66428C7.87887 3.7699 7.9382 3.91316 7.9382 4.06253C7.9382 4.2119 7.87887 4.35516 7.77324 4.46078C7.66762 4.5664 7.52437 4.62574 7.37499 4.62574C7.22562 4.62574 7.08237 4.5664 6.97674 4.46078L4.56249 2.0454V11.9375C4.56249 12.0867 4.50323 12.2298 4.39774 12.3353C4.29225 12.4408 4.14918 12.5 3.99999 12.5C3.85081 12.5 3.70774 12.4408 3.60225 12.3353C3.49676 12.2298 3.43749 12.0867 3.43749 11.9375V2.0454L1.02324 4.46078C0.970945 4.51308 0.908857 4.55456 0.840525 4.58287C0.772193 4.61117 0.698955 4.62574 0.624994 4.62574C0.551032 4.62574 0.477794 4.61117 0.409462 4.58287C0.34113 4.55456 0.279042 4.51308 0.226744 4.46078C0.174445 4.40848 0.132959 4.34639 0.104655 4.27806C0.0763508 4.20973 0.0617828 4.13649 0.0617828 4.06253C0.0617828 3.98857 0.0763507 3.91533 0.104655 3.847C0.132959 3.77867 0.174445 3.71658 0.226744 3.66428L3.60174 0.289279Z" fill="#007AFF"/>
</svg>
