<svg width="14" height="14" viewBox="0 0 14 14" fill="none" xmlns="http://www.w3.org/2000/svg">
<path d="M6.50001 0.906V1.844H7.50001V0.906H6.50001ZM6.50001 2.781V3.719H7.50001V2.78H6.50001V2.781ZM6.50001 4.656V5.594H7.50001V4.656H6.50001ZM0.906006 7.5H1.84401V6.5H0.906006V7.5ZM2.78101 7.5H3.71901V6.5H2.78001V7.5H2.78101ZM4.65601 7.5H5.59401V6.5H4.65601V7.5ZM7.46901 7.5V7.469H7.50001V6.53H7.46901V6.5H6.53001V6.531H6.50001V7.469H6.53101V7.5H7.46901ZM8.40601 7.5H9.34401V6.5H8.40601V7.5ZM10.281 7.5H11.219V6.5H10.281V7.5ZM12.156 7.5H13.094V6.5H12.156V7.5ZM6.50001 8.406V9.344H7.50001V8.406H6.50001ZM6.50001 10.281V11.219H7.50001V10.281H6.50001ZM6.50001 12.156V13.094H7.50001V12.156H6.50001Z" fill="black"/>
</svg>
